<?xml version="1.0" standalone="no"?>
<!DOCTYPE svg PUBLIC "-//W3C//DTD SVG 20010904//EN"
 "http://www.w3.org/TR/2001/REC-SVG-20010904/DTD/svg10.dtd">
<svg version="1.0" xmlns="http://www.w3.org/2000/svg"
 width="2876.000000pt" height="638.000000pt" viewBox="0 0 2876.000000 638.000000"
 preserveAspectRatio="xMidYMid meet">

<g transform="translate(0.000000,638.000000) scale(0.100000,-0.100000)"
fill="#000000" stroke="none">
<path d="M1745 6049 c-91 -12 -290 -64 -368 -96 -362 -147 -685 -407 -902
-727 -35 -53 -78 -123 -95 -155 -37 -75 -100 -226 -100 -242 0 -7 24 22 53 64
28 42 99 133 156 202 318 384 678 627 1061 716 111 26 396 37 478 19 167 -37
317 -141 404 -280 205 -326 161 -831 -154 -1790 -59 -179 -126 -353 -253 -655
-33 -78 12 -14 152 220 341 566 546 1071 604 1490 19 134 17 423 -4 513 -79
344 -334 618 -652 703 -84 22 -281 32 -380 18z"/>
<path d="M1074 5220 c-141 -15 -282 -73 -426 -177 -93 -67 -233 -209 -283
-288 -39 -60 -92 -168 -100 -201 -2 -11 -9 -37 -14 -59 -12 -46 -13 -278 -1
-315 l7 -25 6 25 c4 14 8 39 10 55 5 41 37 147 49 163 6 6 8 12 5 12 -8 0 96
191 118 216 6 6 26 31 45 55 117 144 323 282 485 324 71 19 259 22 325 6 170
-43 323 -168 426 -348 101 -177 120 -311 110 -793 -3 -179 -8 -345 -11 -370
-23 -226 -54 -423 -86 -534 -10 -38 -15 -55 -26 -106 -6 -22 -4 -23 9 -10 15
16 56 85 108 183 28 53 117 272 125 307 2 8 8 26 13 40 11 29 56 210 71 290
21 109 25 168 24 355 0 212 -14 312 -69 513 -43 157 -85 257 -146 348 -54 81
-186 209 -245 238 -21 10 -54 27 -73 36 -110 56 -278 78 -456 60z"/>
<path d="M3754 5026 c-164 -170 -206 -376 -116 -564 45 -93 58 -116 68 -119 6
-2 23 62 42 154 18 87 39 187 47 223 7 36 21 128 29 206 8 77 18 148 22 157
14 37 -24 14 -92 -57z"/>
<path d="M3905 5001 c-3 -16 -7 -86 -7 -156 -1 -125 -1 -127 34 -194 19 -38
57 -103 84 -145 56 -89 60 -88 94 22 48 154 3 300 -139 455 -43 47 -58 51 -66
18z"/>
<path d="M27905 4587 c-17 -8 -36 -21 -44 -31 -20 -24 -8 -90 26 -138 64 -94
299 -318 332 -318 6 0 11 -4 11 -10 0 -17 75 -34 97 -21 62 32 72 197 19 304
-34 69 -129 160 -206 195 -67 30 -188 40 -235 19z"/>
<path d="M4435 4463 c-69 -10 -188 -45 -269 -79 -47 -20 -86 -37 -86 -38 0 0
66 -1 148 -1 110 0 167 -5 227 -20 100 -24 70 -14 210 -68 180 -69 454 -233
558 -333 30 -29 77 -58 77 -48 0 19 -84 172 -128 233 -46 65 -171 201 -185
201 -4 0 -20 11 -35 25 -15 14 -56 39 -92 57 -36 17 -73 35 -83 40 -56 27
-249 45 -342 31z"/>
<path d="M18574 4454 c-16 -8 -40 -27 -54 -43 -74 -84 -140 -90 -393 -32 -240
56 -366 71 -576 71 -141 0 -201 -4 -282 -21 -301 -60 -525 -183 -747 -414
-221 -228 -331 -433 -389 -721 -14 -71 -17 -139 -17 -334 1 -282 17 -399 79
-580 189 -543 750 -920 1370 -920 289 0 616 105 885 285 86 57 216 176 256
233 21 30 15 61 -17 84 -24 18 -29 19 -55 5 -16 -8 -80 -53 -142 -99 -458
-344 -1022 -391 -1394 -116 -172 128 -327 343 -414 575 -38 100 -54 263 -54
541 0 366 28 515 138 733 155 306 383 493 676 553 98 20 316 21 407 2 95 -21
208 -70 307 -136 150 -98 242 -218 349 -453 35 -78 74 -152 86 -164 12 -12 39
-25 60 -29 l38 -6 -5 83 c-3 46 -10 221 -16 389 -14 413 -17 462 -31 493 -15
34 -30 39 -65 21z"/>
<path d="M14367 4442 c-25 -28 -76 -142 -351 -794 -326 -773 -624 -1462 -715
-1651 -108 -227 -177 -313 -279 -346 -23 -8 -56 -26 -74 -42 -27 -23 -31 -31
-22 -45 6 -10 28 -22 50 -27 51 -12 692 1 755 14 81 18 59 51 -56 84 -140 40
-171 78 -162 199 6 84 61 259 152 484 l63 157 557 2 557 1 58 -121 c89 -187
185 -447 205 -559 9 -47 -10 -104 -40 -124 -13 -8 -64 -23 -113 -34 -49 -10
-99 -23 -111 -29 -26 -14 -28 -56 -3 -67 45 -20 989 -10 1060 12 43 13 19 38
-87 90 -57 27 -113 61 -123 75 -53 64 -205 396 -788 1724 -295 671 -405 912
-449 983 -24 37 -58 43 -84 14z m-26 -729 c125 -271 435 -1030 425 -1040 -16
-17 -125 -22 -431 -23 -302 0 -515 6 -515 16 0 7 58 152 247 612 107 260 198
484 203 498 5 13 14 24 20 24 6 0 29 -39 51 -87z"/>
<path d="M20148 4444 c-328 -51 -659 -273 -891 -596 -144 -202 -207 -398 -227
-711 -22 -328 15 -602 111 -827 109 -258 391 -559 641 -686 227 -115 499 -161
801 -136 172 14 262 36 410 100 187 80 304 159 442 297 67 66 142 152 168 191
67 102 142 256 177 365 54 164 64 246 64 529 0 285 -12 386 -66 540 -80 229
-181 393 -343 556 -229 232 -471 347 -807 383 -131 15 -373 12 -480 -5z m427
-165 c162 -22 268 -72 404 -190 154 -134 282 -368 330 -604 37 -186 41 -791 6
-985 -28 -154 -109 -359 -189 -477 -98 -143 -285 -294 -414 -332 -148 -44
-381 -51 -506 -14 -217 63 -419 241 -534 469 -109 217 -156 468 -156 829 1
519 114 868 353 1087 117 107 204 163 321 204 54 20 85 24 187 24 67 0 156 -5
198 -11z"/>
<path d="M6108 4411 c-130 -5 -160 -9 -174 -23 -17 -16 -17 -18 0 -37 10 -11
67 -36 127 -55 192 -62 216 -94 229 -314 15 -258 23 -1574 11 -1822 -11 -223
-32 -394 -52 -431 -17 -33 -55 -51 -170 -80 -151 -38 -193 -69 -136 -101 32
-19 1142 -19 1175 0 55 32 11 69 -111 92 -109 21 -144 37 -181 80 -71 85 -86
294 -69 968 l6 262 321 0 c490 -1 561 -11 634 -95 40 -45 53 -70 91 -180 39
-109 52 -125 103 -125 l39 0 -3 478 c-3 521 -2 512 -59 512 -35 0 -53 -33 -93
-160 -38 -126 -61 -160 -126 -192 -73 -35 -182 -45 -598 -53 l-323 -7 3 509
c3 457 5 511 20 539 10 17 25 35 35 39 52 20 542 26 823 10 322 -20 396 -71
467 -326 19 -70 41 -96 88 -105 63 -11 65 -7 65 118 0 117 -16 419 -26 476
l-5 32 -977 -2 c-537 -1 -1048 -4 -1134 -7z"/>
<path d="M8420 4411 c-55 -8 -70 -17 -70 -40 0 -30 23 -41 143 -66 64 -13 129
-31 145 -39 41 -21 90 -83 105 -131 9 -30 12 -275 12 -1020 0 -1044 -2 -1157
-21 -1276 -14 -91 -35 -134 -73 -154 -30 -15 -101 -33 -159 -41 -54 -7 -135
-38 -146 -56 -15 -24 2 -38 56 -49 68 -12 1116 -11 1177 2 47 10 51 13 51 39
0 34 -12 40 -110 50 -41 5 -101 18 -132 30 -70 26 -142 92 -153 141 -10 42
-13 1765 -4 2047 11 303 29 381 99 417 17 9 77 24 134 34 117 21 166 42 166
71 0 44 -14 45 -610 46 -311 1 -585 -1 -610 -5z"/>
<path d="M11870 4413 c-69 -4 -90 -15 -90 -44 0 -27 35 -46 146 -77 156 -44
194 -84 228 -242 34 -164 44 -638 27 -1414 l-6 -288 -825 1031 -825 1031 -373
0 -372 0 -12 -25 c-17 -37 8 -57 81 -66 108 -12 202 -70 303 -186 l48 -54 0
-747 c-1 -915 -12 -1383 -36 -1462 -38 -129 -88 -173 -252 -227 -106 -34 -142
-54 -142 -79 0 -8 12 -17 28 -21 36 -10 939 -10 975 0 61 17 11 66 -98 97
-106 30 -172 66 -201 110 -47 70 -54 119 -64 400 -11 302 -12 1552 -2 1620 l7
44 62 -69 c34 -39 371 -455 749 -925 869 -1082 914 -1137 1014 -1242 81 -88
111 -104 126 -70 13 30 22 569 23 1387 1 435 6 875 11 979 11 230 22 267 96
335 52 47 89 66 196 96 61 17 108 48 108 70 0 36 -35 39 -455 41 -225 1 -439
-1 -475 -3z"/>
<path d="M22206 4410 c-110 -4 -130 -8 -140 -23 -19 -31 29 -61 135 -87 141
-34 167 -52 189 -131 24 -81 30 -306 35 -1305 l6 -1061 -48 -50 c-50 -53 -118
-93 -193 -113 -108 -29 -156 -79 -92 -97 35 -10 1109 -10 1145 0 22 6 27 13
27 37 0 35 -23 50 -78 50 -54 0 -129 24 -184 59 -59 37 -94 103 -107 198 -6
37 -13 274 -16 526 l-7 457 120 -1 121 -2 127 -166 c70 -91 303 -392 518 -669
l391 -502 320 1 c176 1 331 4 345 8 21 6 25 13 25 41 0 33 -3 36 -40 43 -94
19 -166 66 -280 181 -155 156 -905 1071 -905 1103 0 17 7 20 109 42 246 54
474 206 563 376 53 102 70 179 70 315 0 220 -52 360 -182 490 -61 62 -95 86
-185 132 -141 72 -279 114 -420 128 -60 6 -299 13 -530 16 -231 3 -485 6 -565
7 -80 1 -203 0 -274 -3z m1239 -210 c101 -26 194 -69 263 -122 110 -85 161
-202 169 -388 14 -332 -125 -513 -457 -594 -146 -36 -274 -54 -418 -60 l-124
-5 6 497 c8 647 9 661 68 688 51 23 384 12 493 -16z"/>
<path d="M27734 4387 c-37 -40 -94 -128 -114 -177 -12 -27 -14 -74 -12 -205 1
-93 7 -174 12 -179 5 -5 84 -7 179 -4 l170 4 74 37 c71 35 157 111 157 139 0
31 -296 290 -329 288 -16 -1 -65 -54 -125 -137 -37 -51 -72 -93 -77 -93 -37 0
-7 77 88 225 61 95 70 129 33 133 -18 1 -34 -8 -56 -31z"/>
<path d="M25003 4403 c-38 -4 -43 -7 -43 -28 0 -31 31 -48 144 -76 108 -27
167 -65 197 -125 20 -42 22 -67 30 -337 11 -397 11 -1591 -1 -1807 -12 -228
-36 -312 -100 -345 -14 -7 -63 -23 -108 -35 -129 -32 -181 -65 -153 -93 21
-21 223 -26 1262 -26 1017 -1 1077 0 1082 17 77 274 178 660 180 689 l2 38
-43 3 c-37 3 -47 -1 -70 -26 -16 -17 -43 -58 -61 -92 -18 -33 -59 -96 -92
-140 -178 -236 -308 -281 -849 -295 -275 -7 -488 5 -525 29 -45 30 -47 59 -52
654 l-5 563 128 -5 c71 -3 235 -8 364 -12 333 -8 457 -30 512 -91 24 -27 72
-134 99 -223 12 -41 27 -78 33 -82 6 -4 32 -8 59 -8 l47 0 0 283 c-1 295 -14
650 -25 680 -11 27 -53 33 -75 11 -10 -11 -35 -66 -55 -124 -62 -179 -94 -214
-221 -240 -45 -9 -543 -29 -768 -30 l-98 0 4 513 c4 554 5 563 58 578 14 4
204 7 422 8 526 1 646 -15 736 -102 46 -44 75 -96 112 -202 44 -128 50 -135
109 -135 l49 0 -4 208 c-3 114 -7 253 -10 310 l-6 102 -1111 -2 c-612 -1
-1131 -3 -1154 -5z"/>
<path d="M3580 4048 c-89 -243 -258 -493 -441 -654 -143 -126 -395 -248 -574
-280 -84 -15 -245 -62 -315 -91 -52 -23 -192 -91 -214 -106 -11 -6 -43 -26
-72 -44 -28 -18 -58 -38 -65 -45 -8 -7 -33 -26 -57 -42 -72 -49 -223 -216
-273 -302 -77 -132 -73 -138 32 -44 105 93 266 204 379 260 66 33 141 67 155
70 3 1 31 12 62 27 32 14 69 27 82 30 14 2 29 7 35 11 6 4 13 7 16 8 3 0 12 3
20 6 21 8 216 55 265 64 22 4 47 8 55 10 8 2 44 8 80 15 122 22 280 93 385
172 282 212 440 522 469 920 4 42 4 77 2 77 -2 0 -14 -28 -26 -62z"/>
<path d="M5175 3729 c-111 -24 -143 -34 -222 -72 -59 -28 -294 -175 -283 -178
3 0 14 -3 25 -7 11 -3 85 -6 166 -6 l145 -1 75 37 c88 44 208 163 232 231 8
22 -19 22 -138 -4z"/>
<path d="M4972 3146 c-93 -18 -206 -72 -346 -166 -147 -98 -233 -143 -346
-181 -89 -31 -104 -33 -240 -33 -151 -1 -208 10 -298 56 -20 10 -38 15 -41 13
-8 -9 100 -114 154 -150 28 -19 78 -47 110 -62 55 -25 71 -28 190 -30 200 -3
326 39 480 161 272 215 451 274 660 215 39 -10 75 -20 81 -22 12 -3 136 -78
172 -103 30 -22 28 -6 -9 49 -66 100 -185 198 -287 237 -68 26 -189 33 -280
16z"/>
<path d="M1515 3113 c-4 -10 -53 -148 -110 -308 -132 -372 -153 -429 -268
-730 -161 -422 -168 -452 -173 -690 -3 -178 6 -263 44 -380 25 -79 73 -185 84
-185 4 0 8 -7 8 -15 0 -8 3 -15 8 -15 4 0 13 -12 20 -27 14 -31 84 -108 155
-169 109 -93 312 -195 427 -213 86 -14 293 -14 383 0 120 19 352 113 452 183
17 12 42 28 58 35 15 8 27 18 27 23 0 4 5 8 11 8 17 0 184 133 172 137 -5 2
-33 -8 -60 -22 -28 -14 -56 -25 -62 -25 -6 0 -11 -5 -11 -12 0 -6 -3 -9 -6 -5
-4 3 -18 0 -33 -7 -28 -15 -221 -85 -249 -91 -9 -2 -62 -14 -117 -26 -83 -19
-131 -23 -275 -23 -162 0 -181 2 -252 26 -144 48 -280 151 -363 274 -22 32
-44 62 -48 65 -5 3 -8 9 -7 13 0 3 -6 21 -14 39 -45 100 -56 131 -75 227 -62
304 -29 595 119 1044 116 354 152 519 166 768 7 114 4 138 -11 101z"/>
<path d="M2700 2236 c218 -56 387 -151 521 -292 106 -113 178 -246 226 -420
27 -96 28 -106 28 -351 0 -138 3 -249 7 -247 12 8 78 223 100 324 39 183 24
498 -25 559 -7 8 -11 16 -9 18 6 8 -42 93 -79 138 -96 116 -209 187 -379 238
-125 38 -189 48 -345 53 l-140 4 95 -24z"/>
<path d="M7977 1042 c-33 -36 -8 -92 40 -92 25 0 53 30 53 57 0 46 -62 69 -93
35z"/>
<path d="M8508 1037 c-68 -21 -88 -37 -45 -37 39 0 47 -18 47 -112 l0 -89 -32
17 c-40 21 -114 22 -154 1 -37 -20 -87 -73 -109 -117 -23 -45 -31 -156 -15
-206 43 -135 195 -188 288 -102 l22 21 0 -32 c0 -27 3 -32 18 -26 9 3 45 16
80 28 68 24 80 44 30 49 l-33 3 -3 313 c-2 240 -5 312 -15 311 -6 -1 -42 -11
-79 -22z m-36 -266 l33 -29 3 -133 c4 -143 -2 -169 -45 -188 -84 -38 -169 41
-180 169 -15 157 97 263 189 181z"/>
<path d="M8766 1038 c-21 -30 -20 -44 4 -68 36 -36 90 -16 90 35 0 52 -65 74
-94 33z"/>
<path d="M12895 1055 c-5 -2 -36 -11 -67 -20 -62 -18 -76 -35 -28 -35 19 0 33
-7 40 -19 6 -12 10 -121 10 -286 l0 -266 -25 -24 c-13 -14 -31 -25 -40 -25 -8
0 -15 -4 -15 -10 0 -6 47 -10 120 -10 66 0 120 3 120 8 0 4 -15 14 -33 22
l-32 15 -3 328 c-2 303 -4 327 -20 326 -9 0 -21 -2 -27 -4z"/>
<path d="M13118 1037 c-71 -22 -88 -37 -40 -37 52 0 52 -3 52 -306 0 -302 1
-296 -53 -309 -59 -15 -21 -25 98 -25 119 0 161 10 95 24 -20 4 -34 14 -40 31
-6 15 -10 157 -10 336 0 353 12 321 -102 286z"/>
<path d="M17088 1037 c-68 -21 -88 -37 -45 -37 39 0 47 -18 47 -112 l0 -89
-32 17 c-40 21 -114 22 -154 1 -37 -20 -87 -72 -109 -117 -23 -45 -31 -148
-15 -204 36 -128 187 -187 280 -110 l30 26 0 -32 c0 -27 3 -31 18 -25 9 3 45
16 80 28 68 24 80 44 30 49 l-33 3 -3 313 c-2 240 -5 312 -15 311 -6 -1 -42
-11 -79 -22z m-36 -266 l33 -29 3 -133 c4 -143 -2 -169 -45 -188 -84 -38 -169
41 -180 169 -15 157 97 263 189 181z"/>
<path d="M18540 1038 c-70 -21 -98 -38 -63 -38 50 0 53 -6 53 -107 0 -83 -2
-94 -15 -83 -24 20 -82 28 -127 18 -55 -12 -101 -48 -133 -102 -61 -105 -56
-232 13 -309 64 -70 134 -85 215 -43 l47 23 0 -24 c0 -16 5 -23 13 -21 6 3 42
16 80 29 70 25 89 49 38 49 -17 0 -31 6 -35 16 -3 9 -6 150 -6 315 0 164 -3
299 -7 298 -5 0 -37 -10 -73 -21z m-41 -267 l31 -29 0 -145 c0 -145 0 -146
-26 -166 -55 -43 -130 -16 -169 62 -49 98 -26 254 43 292 44 23 86 19 121 -14z"/>
<path d="M20468 1037 c-42 -13 -68 -26 -68 -35 0 -8 6 -12 14 -9 8 3 22 0 33
-8 17 -12 18 -36 23 -302 l5 -288 40 -20 c59 -28 176 -27 232 3 81 42 126 128
126 238 -1 130 -70 214 -178 214 -50 0 -77 -10 -112 -43 l-23 -20 0 146 c0
112 -3 147 -12 146 -7 -1 -43 -11 -80 -22z m241 -292 c65 -33 93 -192 51 -281
-21 -42 -67 -74 -108 -74 -33 0 -82 21 -92 40 -6 10 -10 74 -10 142 0 97 3
128 16 146 29 42 92 54 143 27z"/>
<path d="M20988 1037 c-72 -22 -87 -37 -39 -37 16 0 34 -6 40 -14 8 -9 11 -96
9 -297 l-3 -284 -32 -15 c-18 -8 -33 -18 -33 -22 0 -5 54 -8 120 -8 115 0 154
11 90 25 -16 4 -31 7 -32 8 -1 1 -5 151 -8 332 -6 380 5 349 -112 312z"/>
<path d="M25855 1038 c-75 -21 -104 -38 -66 -38 12 0 31 -5 42 -10 18 -10 19
-24 19 -293 0 -155 -4 -288 -9 -296 -13 -20 -92 -26 -116 -8 -18 14 -20 30
-25 189 -3 112 -10 181 -18 195 -20 36 -53 53 -102 53 -43 0 -63 -9 -127 -56
-23 -16 -23 -16 -23 20 0 20 -3 36 -6 36 -21 0 -144 -44 -144 -51 0 -5 7 -9
15 -9 8 0 24 -9 35 -20 18 -18 20 -33 20 -164 0 -160 -7 -192 -45 -202 -56
-14 -19 -24 90 -24 70 0 115 4 115 10 0 6 -8 10 -18 10 -11 0 -26 8 -36 19
-14 16 -16 39 -14 172 l3 153 34 23 c46 31 84 30 110 -3 19 -24 21 -40 21
-181 l0 -154 -30 -17 c-16 -9 -30 -20 -30 -24 0 -4 106 -8 235 -8 215 0 283 8
206 23 -43 9 -52 35 -49 132 l3 85 77 -101 c75 -97 84 -119 52 -119 -8 0 -14
-4 -14 -10 0 -6 45 -10 115 -10 108 0 146 10 91 24 -14 3 -39 18 -57 33 -34
29 -189 220 -189 233 0 12 120 112 158 132 20 10 47 18 59 18 13 0 23 5 23 10
0 6 -42 10 -105 10 -63 0 -105 -4 -105 -10 0 -5 9 -10 19 -10 40 0 29 -20 -46
-89 l-78 -71 -3 210 c-1 116 -6 210 -10 209 -4 0 -38 -10 -77 -21z"/>
<path d="M26388 1049 c-12 -6 -18 -22 -18 -45 0 -27 5 -37 25 -46 40 -18 75 3
75 45 0 52 -37 73 -82 46z"/>
<path d="M11105 1036 c-38 -16 -83 -68 -91 -104 -3 -15 -7 -35 -9 -45 -6 -29
14 -84 42 -118 15 -18 78 -65 139 -105 119 -77 144 -106 144 -167 0 -45 -31
-84 -80 -98 -82 -25 -166 20 -216 115 -28 54 -54 73 -54 40 0 -17 18 -148 26
-182 5 -26 22 -29 39 -5 11 15 16 15 72 0 178 -50 323 27 323 172 0 78 -33
118 -175 212 -167 111 -194 153 -140 217 65 77 208 24 248 -93 16 -45 54 -65
44 -23 -3 12 -9 62 -12 111 -6 68 -11 87 -23 87 -8 0 -20 -7 -26 -16 -11 -15
-17 -15 -66 0 -65 19 -144 20 -185 2z"/>
<path d="M17675 750 c-70 -165 -137 -312 -148 -326 -11 -14 -31 -30 -44 -35
-46 -17 -12 -29 88 -29 76 0 100 3 97 13 -3 6 -14 13 -26 15 -41 6 -45 35 -14
114 l28 73 133 0 134 0 28 -70 c35 -86 34 -108 -5 -115 -16 -3 -31 -11 -34
-17 -3 -10 27 -13 127 -13 100 0 131 3 131 13 0 7 -13 17 -28 23 -25 10 -42
42 -150 285 -66 151 -130 295 -141 322 -11 26 -27 47 -34 47 -9 0 -62 -112
-142 -300z m174 6 c28 -66 49 -121 47 -123 -2 -2 -51 -2 -109 -1 l-105 3 52
127 c28 70 54 124 58 120 4 -4 29 -61 57 -126z"/>
<path d="M22165 1036 c-63 -20 -98 -41 -144 -87 -53 -53 -76 -97 -91 -177 -36
-183 50 -350 212 -408 66 -24 191 -21 258 4 71 28 146 92 137 116 -6 16 -13
14 -56 -18 -68 -51 -111 -66 -181 -66 -135 0 -228 87 -249 230 -32 234 100
407 284 368 40 -8 60 -20 96 -58 26 -26 52 -64 59 -84 6 -20 18 -36 26 -36 11
0 14 17 14 78 0 101 -9 152 -26 152 -8 0 -14 -4 -14 -9 0 -19 -40 -22 -98 -6
-71 18 -171 19 -227 1z"/>
<path d="M5972 1030 c2 -7 19 -18 38 -24 23 -7 36 -19 41 -36 9 -31 9 -494 0
-535 -5 -23 -14 -33 -41 -41 -19 -6 -36 -16 -38 -23 -3 -8 38 -11 143 -11 111
0 146 3 143 12 -3 7 -19 15 -37 19 -53 11 -56 20 -56 147 l0 117 30 -1 c62 -3
176 16 214 36 22 11 52 36 68 57 24 31 28 45 28 103 0 57 -4 72 -27 102 -15
19 -49 46 -75 59 -44 22 -63 24 -242 27 -150 3 -192 1 -189 -8z m347 -58 c51
-24 73 -66 68 -135 -6 -93 -63 -137 -179 -137 l-48 0 0 138 c0 97 4 142 13
151 15 15 97 6 146 -17z"/>
<path d="M13842 1029 c2 -6 19 -17 38 -23 26 -9 36 -18 43 -45 5 -19 7 -149 5
-289 -3 -237 -4 -255 -22 -268 -11 -8 -30 -14 -43 -14 -14 0 -23 -6 -23 -15 0
-13 23 -15 146 -15 110 0 145 3 142 12 -3 7 -19 16 -38 19 -18 4 -36 13 -41
21 -5 7 -9 73 -9 146 l0 132 96 0 c52 0 104 -4 114 -10 10 -5 24 -26 30 -45 6
-19 18 -35 26 -35 11 0 14 23 14 120 0 101 -2 120 -15 120 -9 0 -18 -12 -22
-30 -10 -55 -43 -70 -149 -70 l-94 0 0 124 c0 144 -6 136 108 136 144 -1 186
-18 199 -82 4 -19 12 -28 25 -28 17 0 19 7 16 73 l-3 72 -273 3 c-203 2 -273
-1 -270 -9z"/>
<path d="M24152 1029 c3 -8 19 -16 37 -20 18 -4 38 -12 44 -18 9 -9 12 -93 12
-291 0 -198 -3 -282 -12 -291 -6 -6 -26 -14 -44 -18 -18 -4 -34 -12 -37 -19
-5 -16 354 -17 427 -1 99 21 152 77 159 166 5 74 -21 115 -95 154 l-53 28 37
18 c55 27 77 64 77 126 0 76 -24 113 -92 145 -55 26 -65 27 -261 30 -166 3
-203 2 -199 -9z m383 -58 c41 -23 67 -76 61 -124 -8 -72 -64 -107 -171 -107
l-65 0 0 124 c0 90 3 126 13 130 22 10 131 -5 162 -23z m-11 -299 c27 -9 58
-29 68 -43 42 -57 29 -158 -25 -194 -37 -24 -151 -41 -182 -27 -25 11 -25 13
-25 147 l0 135 58 0 c31 -1 79 -9 106 -18z"/>
<path d="M3955 1006 c-75 -17 -172 -57 -250 -103 -121 -72 -283 -203 -220
-179 140 53 323 86 485 87 109 1 156 -4 268 -26 81 -15 210 -80 305 -151 31
-24 62 -44 67 -44 5 0 -9 36 -33 81 -71 136 -186 254 -303 310 -57 27 -80 32
-163 35 -60 2 -119 -1 -156 -10z"/>
<path d="M15358 915 c-20 -28 -52 -65 -72 -84 -38 -37 -38 -51 0 -51 l24 0 0
-170 c0 -182 9 -228 48 -249 45 -24 105 -7 151 42 31 34 18 53 -18 26 -16 -12
-37 -19 -47 -17 -36 6 -44 45 -44 211 l0 157 50 0 c43 0 50 3 50 19 0 17 -8
20 -47 23 l-48 3 -5 70 -5 70 -37 -50z"/>
<path d="M19767 902 c-27 -34 -60 -70 -73 -78 -34 -23 -31 -44 6 -44 l30 0 0
-177 c0 -122 4 -186 13 -203 32 -63 115 -64 176 -3 38 38 30 57 -11 29 -31
-22 -54 -20 -72 6 -13 18 -16 54 -16 185 l0 163 50 0 c43 0 50 3 50 19 0 17
-8 20 -47 23 l-48 3 -5 70 -5 70 -48 -63z"/>
<path d="M10415 836 c-5 -2 -22 -7 -37 -10 -43 -10 -88 -62 -88 -102 0 -27 5
-37 23 -43 43 -16 67 5 67 60 0 41 13 56 58 65 25 5 36 1 56 -19 21 -21 26
-36 26 -77 0 -32 -4 -50 -12 -50 -7 0 -53 -20 -104 -45 -104 -50 -134 -85
-134 -151 0 -49 22 -82 67 -100 41 -18 91 -7 148 32 20 14 38 24 39 22 1 -2 7
-15 13 -29 19 -43 79 -44 127 -2 36 31 32 43 -11 40 l-38 -2 -5 160 c-6 175
-14 206 -62 231 -29 15 -114 27 -133 20z m105 -290 c0 -79 -2 -86 -26 -105
-51 -40 -118 -17 -130 45 -5 26 0 38 27 69 29 32 96 74 122 75 4 0 7 -38 7
-84z"/>
<path d="M12445 826 c-48 -18 -95 -67 -95 -101 0 -13 10 -31 22 -39 29 -20 34
-20 58 4 14 14 18 28 14 48 -17 82 118 95 138 13 19 -70 11 -80 -87 -122 -138
-59 -189 -131 -150 -213 32 -67 112 -79 194 -28 l49 30 11 -24 c6 -14 21 -28
33 -33 44 -16 118 22 118 61 0 15 -3 16 -19 7 -48 -31 -61 10 -61 196 0 128
-8 155 -50 186 -35 26 -125 33 -175 15z m145 -263 c0 -90 -7 -111 -41 -128
-61 -32 -119 -3 -119 60 0 42 22 70 83 105 74 43 77 41 77 -37z"/>
<path d="M14548 829 c-44 -13 -98 -70 -98 -104 0 -31 35 -56 64 -46 16 6 22
19 26 57 4 41 9 51 33 62 62 30 107 -6 107 -83 0 -53 0 -54 -37 -66 -65 -20
-147 -66 -176 -97 -57 -60 -42 -158 29 -188 42 -18 98 -6 153 32 l36 24 8 -24
c21 -63 157 -39 157 28 0 15 -3 17 -12 8 -17 -17 -55 -15 -62 4 -3 9 -6 78 -6
155 0 159 -10 198 -60 224 -40 21 -115 27 -162 14z m132 -283 c0 -79 -2 -86
-26 -105 -92 -72 -176 54 -88 130 20 17 94 58 107 59 4 0 7 -38 7 -84z"/>
<path d="M14999 831 c-69 -22 -99 -61 -99 -128 0 -61 24 -89 133 -154 78 -46
101 -75 91 -114 -9 -38 -46 -59 -91 -52 -46 8 -78 38 -99 94 -9 23 -21 43 -25
43 -5 0 -9 -35 -9 -78 l0 -79 33 0 c17 0 56 -4 84 -8 104 -15 183 40 183 130
0 57 -28 95 -99 135 -87 48 -131 87 -131 115 0 39 10 54 45 65 50 17 92 -8
118 -71 12 -27 25 -49 29 -49 5 0 8 32 6 71 l-3 71 -45 3 c-25 2 -56 5 -70 8
-14 3 -37 2 -51 -2z"/>
<path d="M15965 836 c-5 -2 -22 -7 -37 -10 -43 -10 -88 -62 -88 -102 0 -27 5
-37 23 -43 43 -16 67 5 67 60 0 41 13 56 58 65 25 5 36 1 56 -19 21 -21 26
-36 26 -77 0 -32 -4 -50 -12 -50 -7 0 -53 -20 -104 -45 -104 -50 -134 -85
-134 -151 0 -49 22 -82 67 -100 41 -18 91 -7 148 32 20 14 38 24 39 22 1 -2 7
-15 13 -29 19 -43 79 -44 127 -2 36 31 32 43 -11 40 l-38 -2 -5 160 c-6 175
-14 206 -62 231 -29 15 -114 27 -133 20z m105 -290 c0 -79 -2 -86 -26 -105
-51 -40 -118 -17 -130 45 -5 26 0 38 27 69 29 32 96 74 122 75 4 0 7 -38 7
-84z"/>
<path d="M18847 826 c-47 -17 -64 -32 -83 -68 -28 -55 14 -105 62 -73 19 12
24 23 22 51 -3 44 21 68 67 68 49 0 67 -23 73 -87 4 -52 3 -55 -23 -61 -63
-16 -175 -78 -200 -110 -35 -47 -35 -123 0 -158 46 -46 110 -44 187 7 l38 25
10 -25 c18 -48 84 -52 132 -8 28 25 22 41 -14 39 l-33 -1 -5 161 c-6 172 -12
195 -64 230 -34 22 -123 27 -169 10z m143 -275 c0 -95 -15 -119 -76 -128 -36
-5 -43 -2 -62 22 -43 54 -15 117 69 159 29 14 57 26 61 26 4 0 8 -36 8 -79z"/>
<path d="M19411 825 c-24 -7 -54 -24 -67 -36 l-24 -22 0 31 c0 38 -4 38 -92
10 -67 -22 -91 -48 -43 -48 14 0 29 -8 35 -19 11 -22 13 -499 1 -541 -4 -17
-17 -28 -39 -35 -60 -18 -32 -25 98 -25 124 0 166 10 98 24 -54 11 -58 20 -58
126 l0 98 37 -19 c47 -24 87 -24 139 0 82 37 134 133 134 246 0 160 -93 250
-219 210z m57 -75 c50 -30 75 -96 70 -179 -5 -79 -30 -137 -72 -162 -43 -26
-79 -24 -115 7 l-31 26 0 137 c0 130 1 139 23 158 41 38 77 42 125 13z"/>
<path d="M20098 829 c-44 -13 -98 -70 -98 -104 0 -31 35 -56 64 -46 16 6 22
19 26 57 4 41 9 51 33 62 62 30 107 -6 107 -83 0 -53 0 -54 -37 -66 -65 -20
-147 -66 -176 -97 -57 -60 -42 -158 29 -188 42 -18 98 -6 153 32 l36 24 8 -24
c21 -63 157 -39 157 28 0 15 -3 17 -12 8 -17 -17 -55 -15 -62 4 -3 9 -6 78 -6
155 0 159 -10 198 -60 224 -40 21 -115 27 -162 14z m132 -283 c0 -79 -2 -86
-26 -105 -92 -72 -176 54 -88 130 20 17 94 58 107 59 4 0 7 -38 7 -84z"/>
<path d="M24968 829 c-44 -13 -98 -70 -98 -104 0 -31 35 -56 64 -46 16 6 22
19 26 57 4 41 9 51 33 62 62 30 107 -6 107 -83 0 -53 0 -54 -37 -66 -65 -20
-147 -66 -176 -97 -57 -60 -42 -158 29 -188 42 -18 98 -6 153 32 l36 24 8 -24
c21 -63 157 -39 157 28 0 15 -3 17 -12 8 -17 -17 -55 -15 -62 4 -3 9 -6 78 -6
155 0 159 -10 198 -60 224 -40 21 -115 27 -162 14z m132 -283 c0 -79 -2 -86
-26 -105 -92 -72 -176 54 -88 130 20 17 94 58 107 59 4 0 7 -38 7 -84z"/>
<path d="M6593 803 c-66 -26 -81 -43 -38 -43 18 0 28 -7 35 -26 13 -33 13
-300 0 -323 -5 -10 -23 -21 -40 -24 -16 -4 -30 -11 -30 -17 0 -6 48 -10 131
-10 124 0 159 10 89 25 -17 4 -35 15 -40 25 -6 10 -10 80 -10 154 l0 136 29
32 30 33 29 -17 c39 -23 69 -23 82 1 24 45 -1 81 -56 81 -25 0 -44 -9 -74 -36
l-40 -36 0 36 c0 44 -9 45 -97 9z"/>
<path d="M7015 812 c-84 -41 -129 -117 -128 -222 1 -145 92 -241 229 -241 65
0 111 19 157 66 101 103 85 299 -30 379 -56 39 -166 47 -228 18z m145 -41 c90
-62 108 -298 28 -366 -58 -49 -129 -21 -172 67 -90 184 10 392 144 299z"/>
<path d="M7390 822 c0 -5 13 -18 28 -29 21 -16 49 -71 116 -232 49 -116 94
-210 100 -208 6 2 48 98 94 213 56 141 91 216 108 229 13 12 24 24 24 28 0 4
-34 7 -75 7 -77 0 -97 -12 -50 -30 14 -5 25 -15 25 -22 0 -15 -102 -280 -106
-276 -9 10 -104 262 -104 277 0 10 9 21 20 24 11 3 20 10 20 16 0 7 -34 11
-100 11 -55 0 -100 -4 -100 -8z"/>
<path d="M7973 803 c-70 -24 -101 -51 -47 -40 48 9 54 -10 54 -179 0 -86 -4
-164 -10 -174 -5 -10 -23 -21 -40 -25 -64 -14 -25 -25 90 -25 66 0 120 3 120
8 0 4 -15 14 -33 22 l-32 15 -3 213 c-2 160 -5 212 -15 211 -6 0 -45 -12 -84
-26z"/>
<path d="M8763 803 c-74 -25 -96 -45 -45 -41 51 4 52 -1 52 -182 0 -163 -1
-169 -22 -184 -12 -9 -30 -16 -40 -16 -10 0 -18 -4 -18 -10 0 -6 48 -10 125
-10 77 0 125 4 125 10 0 6 -9 10 -20 10 -11 0 -29 9 -40 20 -19 19 -20 33 -20
225 0 158 -3 205 -12 204 -7 0 -46 -12 -85 -26z"/>
<path d="M9033 808 c-58 -18 -83 -38 -48 -38 8 0 24 -9 35 -20 18 -18 20 -33
20 -164 0 -160 -7 -192 -45 -202 -56 -14 -19 -24 90 -24 70 0 115 4 115 10 0
6 -8 10 -18 10 -11 0 -26 8 -36 19 -14 16 -16 39 -14 172 l3 153 34 23 c46 31
84 30 110 -3 19 -24 21 -40 21 -181 l0 -154 -30 -17 c-16 -9 -30 -20 -30 -24
0 -11 208 -10 214 1 3 5 -6 12 -19 15 -38 10 -45 42 -45 202 0 200 -22 244
-120 244 -43 0 -63 -9 -127 -56 -23 -16 -23 -16 -23 20 0 41 -1 42 -87 14z"/>
<path d="M9621 813 c-18 -9 -44 -34 -58 -54 -44 -67 -28 -180 30 -210 12 -6
24 -13 26 -15 2 -2 -15 -24 -38 -49 -46 -50 -51 -75 -19 -104 l21 -20 -46 -50
c-26 -28 -47 -56 -47 -63 0 -7 9 -27 19 -44 57 -93 292 -81 390 20 36 38 49
92 32 134 -20 48 -60 64 -185 71 -114 7 -136 13 -136 35 0 28 40 49 99 52 131
5 194 86 166 213 -7 31 -6 31 34 31 34 0 41 3 41 20 0 17 -7 20 -47 20 -27 0
-70 7 -97 15 -64 20 -143 19 -185 -2z m127 -36 c25 -27 52 -98 52 -138 0 -42
-19 -76 -51 -90 -24 -9 -33 -9 -54 5 -94 62 -91 246 4 246 16 0 37 -10 49 -23z
m17 -432 c120 -8 137 -15 133 -58 -2 -25 -11 -36 -43 -54 -110 -61 -301 -28
-282 49 11 42 46 79 70 74 12 -3 67 -8 122 -11z"/>
<path d="M11588 803 c-69 -26 -87 -43 -44 -43 43 0 47 -17 44 -191 l-3 -164
-32 -15 c-18 -8 -33 -18 -33 -22 0 -5 52 -8 115 -8 70 0 115 4 115 10 0 6 -9
10 -19 10 -45 0 -51 22 -51 185 l0 154 37 26 c46 31 95 33 121 5 22 -24 32
-91 31 -205 -2 -116 -8 -137 -46 -155 -18 -8 -33 -18 -33 -22 0 -5 54 -8 120
-8 114 0 155 11 90 24 -43 8 -50 36 -50 191 l0 133 35 31 c44 38 101 43 131
10 17 -18 19 -40 22 -169 4 -160 -2 -186 -43 -196 -56 -14 -18 -24 90 -24 70
0 115 4 115 10 0 6 -9 10 -19 10 -44 0 -51 24 -51 159 0 169 -11 228 -50 264
-50 45 -148 32 -212 -30 l-26 -25 -15 29 c-36 69 -152 69 -224 1 l-23 -21 0
36 c0 44 -3 44 -92 10z"/>
<path d="M16308 808 c-32 -11 -58 -23 -58 -27 0 -3 14 -12 30 -18 l30 -11 0
-177 0 -177 -30 -11 c-16 -6 -30 -15 -30 -19 0 -4 50 -8 110 -8 104 0 140 10
85 24 -33 8 -36 26 -33 196 l3 144 34 23 c46 31 84 30 110 -3 19 -24 21 -40
21 -175 0 -136 -2 -151 -20 -169 -11 -11 -24 -20 -30 -20 -5 0 -10 -4 -10 -10
0 -6 42 -10 105 -10 63 0 105 4 105 10 0 6 -6 10 -14 10 -8 0 -22 10 -30 22
-13 18 -16 52 -16 164 0 170 -4 196 -40 234 -24 26 -35 30 -78 30 -40 0 -60
-7 -101 -34 l-51 -35 0 35 c0 40 -9 42 -92 12z"/>
<path d="M21333 811 c-48 -23 -98 -85 -114 -145 -16 -58 -6 -163 19 -213 12
-23 38 -54 59 -70 32 -25 45 -28 108 -28 62 0 77 4 114 28 41 27 101 107 101
134 0 23 -25 14 -43 -16 -41 -69 -142 -93 -207 -48 -40 27 -71 83 -78 143 l-5
44 157 0 156 0 0 28 c0 47 -41 115 -85 139 -50 28 -124 30 -182 4z m108 -31
c21 -12 49 -60 49 -85 0 -12 -16 -15 -100 -15 -55 0 -100 2 -100 5 0 20 32 75
51 89 27 18 71 21 100 6z"/>
<path d="M22735 811 c-91 -41 -142 -134 -132 -241 12 -133 101 -220 226 -220
72 0 98 9 145 51 128 112 108 331 -37 404 -62 31 -143 33 -202 6z m119 -25
c84 -35 131 -200 90 -319 -48 -140 -185 -106 -229 57 -32 119 -3 240 63 265
37 13 38 13 76 -3z"/>
<path d="M23158 803 c-70 -26 -87 -43 -44 -43 42 0 49 -22 52 -165 3 -162 -2
-185 -44 -204 -18 -8 -32 -18 -32 -23 0 -4 56 -8 125 -8 119 0 160 11 96 25
-49 11 -56 28 -60 153 -4 125 6 178 40 208 20 18 22 18 51 1 52 -30 88 -17 88
33 0 36 -17 50 -62 50 -31 0 -45 -7 -78 -40 l-40 -40 0 40 c0 47 -2 47 -92 13z"/>
<path d="M23572 813 c-18 -9 -48 -33 -66 -54 -78 -92 -78 -256 1 -348 40 -47
87 -65 158 -59 63 5 112 35 154 93 31 44 47 85 34 85 -5 0 -33 -22 -61 -50
-48 -46 -56 -50 -100 -50 -86 0 -145 58 -161 159 l-8 51 160 0 160 0 -7 43
c-14 89 -86 147 -182 147 -27 0 -64 -8 -82 -17z m108 -38 c16 -8 31 -24 34
-35 19 -66 27 -60 -83 -60 -64 0 -101 4 -101 10 0 21 30 69 52 84 28 20 61 20
98 1z"/>
<path d="M26378 803 c-38 -14 -68 -30 -68 -35 0 -6 8 -8 19 -5 10 2 26 0 35
-5 14 -8 16 -32 16 -178 0 -163 -1 -169 -22 -184 -12 -9 -30 -16 -40 -16 -10
0 -18 -4 -18 -10 0 -6 48 -10 125 -10 124 0 155 9 93 26 -22 6 -35 18 -39 34
-4 14 -7 112 -8 218 -1 147 -4 192 -13 191 -7 -1 -43 -13 -80 -26z"/>
<path d="M26643 807 c-62 -21 -81 -37 -44 -37 45 0 51 -21 51 -191 0 -146 -2
-161 -20 -179 -11 -11 -24 -20 -30 -20 -5 0 -10 -4 -10 -10 0 -6 43 -10 110
-10 67 0 110 4 110 10 0 6 -7 10 -15 10 -8 0 -24 9 -35 20 -18 18 -20 33 -20
169 l0 148 38 27 c66 45 116 30 132 -39 11 -46 13 -202 3 -259 -4 -28 -14 -43
-34 -55 -16 -9 -29 -19 -29 -23 0 -5 50 -8 110 -8 67 0 110 4 110 10 0 6 -6
10 -14 10 -38 0 -46 28 -46 153 0 174 -12 235 -51 271 -29 25 -37 28 -85 24
-42 -4 -63 -12 -94 -37 l-40 -32 0 36 c0 42 -7 43 -97 12z"/>
<path d="M27229 807 c-96 -65 -107 -190 -23 -256 l27 -21 -42 -45 c-47 -51
-51 -76 -17 -103 l25 -19 -44 -43 c-51 -50 -57 -68 -39 -107 25 -51 67 -68
169 -68 82 0 97 3 158 33 78 38 107 76 107 135 0 84 -38 107 -197 116 -127 8
-145 16 -119 55 9 15 20 26 24 27 4 1 32 2 63 4 30 1 69 10 86 19 63 32 105
110 89 165 -19 65 -20 61 23 61 34 0 41 3 41 20 0 17 -7 20 -49 20 -27 0 -68
7 -91 15 -65 23 -150 20 -191 -8z m128 -22 c26 -18 53 -95 53 -151 0 -109
-112 -121 -156 -15 -47 112 22 223 103 166z m36 -441 c105 -7 139 -26 120 -67
-16 -35 -50 -55 -114 -69 -76 -16 -165 -3 -196 28 -27 27 -25 48 8 96 16 22
25 25 57 22 20 -2 76 -6 125 -10z"/>
<path d="M13440 450 c-40 -40 -15 -94 44 -94 24 0 36 -5 36 -13 0 -25 -28 -70
-55 -87 -24 -16 -26 -36 -5 -36 18 0 83 65 96 97 22 53 18 91 -15 124 -35 34
-72 38 -101 9z"/>
</g>
</svg>
